HIERARCHY
ROOT Hips
{
	OFFSET 0.00000 0.00000 0.00000
	CHANNELS 6 Xposition Yposition Zposition Zrotation Yrotation Xrotation 
	JOINT LHipJoint
	{
		OFFSET 0 0 0
		CHANNELS 3 Zrotation Yrotation Xrotation
		JOINT LeftUpLeg
		{
			OFFSET 1.76014 -1.80163 0.38499
			CHANNELS 3 Zrotation Yrotation Xrotation
			JOINT LeftLeg
			{
				OFFSET 2.46817 -6.78126 0.00000
				CHANNELS 3 Zrotation Yrotation Xrotation
				JOINT LeftFoot
				{
					OFFSET 2.79348 -7.67503 0.00000
					CHANNELS 3 Zrotation Yrotation Xrotation
					JOINT LeftToeBase
					{
						OFFSET 0.09421 -0.25885 1.91403
						CHANNELS 3 Zrotation Yrotation Xrotation
						End Site
						{
							OFFSET 0.00000 -0.00000 0.97975
						}
					}
				}
			}
		}
	}
	JOINT RHipJoint
	{
		OFFSET 0 0 0
		CHANNELS 3 Zrotation Yrotation Xrotation
		JOINT RightUpLeg
		{
			OFFSET -1.77926 -1.80163 0.38499
			CHANNELS 3 Zrotation Yrotation Xrotation
			JOINT RightLeg
			{
				OFFSET -2.51996 -6.92353 0.00000
				CHANNELS 3 Zrotation Yrotation Xrotation
				JOINT RightFoot
				{
					OFFSET -2.76109 -7.58603 0.00000
					CHANNELS 3 Zrotation Yrotation Xrotation
					JOINT RightToeBase
					{
						OFFSET -0.08067 -0.22163 1.86812
						CHANNELS 3 Zrotation Yrotation Xrotation
						End Site
						{
							OFFSET -0.00000 -0.00000 0.95558
						}
					}
				}
			}
		}
	}
	JOINT LowerBack
	{
		OFFSET 0 0 0
		CHANNELS 3 Zrotation Yrotation Xrotation
		JOINT Spine
		{
			OFFSET 0.05537 1.92033 -0.03713
			CHANNELS 3 Zrotation Yrotation Xrotation
			JOINT Spine1
			{
				OFFSET 0.04452 1.90073 0.10860
				CHANNELS 3 Zrotation Yrotation Xrotation
				JOINT Neck
				{
					OFFSET 0 0 0
					CHANNELS 3 Zrotation Yrotation Xrotation
					JOINT Neck1
					{
						OFFSET 0.00903 1.74649 0.02074
						CHANNELS 3 Zrotation Yrotation Xrotation
						JOINT Head
						{
							OFFSET -0.08608 1.67844 -0.12081
							CHANNELS 3 Zrotation Yrotation Xrotation
							End Site
							{
								OFFSET -0.03521 1.83380 -0.05059
							}
						}
					}
				}
				JOINT LeftShoulder
				{
					OFFSET 0 0 0
					CHANNELS 3 Zrotation Yrotation Xrotation
					JOINT LeftArm
					{
						OFFSET 3.28197 0.84325 -0.19106
						CHANNELS 3 Zrotation Yrotation Xrotation
						JOINT LeftForeArm
						{
							OFFSET 5.24318 -0.00000 -0.00000
							CHANNELS 3 Zrotation Yrotation Xrotation
							JOINT LeftHand
							{
								OFFSET 2.98999 -0.00000 0.00000
								CHANNELS 3 Zrotation Yrotation Xrotation
								JOINT LeftFingerBase
								{
									OFFSET 0 0 0
									CHANNELS 3 Zrotation Yrotation Xrotation
									JOINT LeftHandIndex1
									{
										OFFSET 0.72674 -0.00000 0.00000
										CHANNELS 3 Zrotation Yrotation Xrotation
										End Site
										{
											OFFSET 0.58592 -0.00000 0.00000
										}
									}
								}
								JOINT LThumb
								{
									OFFSET 0 0 0
									CHANNELS 3 Zrotation Yrotation Xrotation
									End Site
									{
										OFFSET 0.59487 -0.00000 0.59487
									}
								}
							}
						}
					}
				}
				JOINT RightShoulder
				{
					OFFSET 0 0 0
					CHANNELS 3 Zrotation Yrotation Xrotation
					JOINT RightArm
					{
						OFFSET -3.30963 0.78377 0.14264
						CHANNELS 3 Zrotation Yrotation Xrotation
						JOINT RightForeArm
						{
							OFFSET -5.37045 -0.00000 0.00000
							CHANNELS 3 Zrotation Yrotation Xrotation
							JOINT RightHand
							{
								OFFSET -2.92792 -0.00000 0.00000
								CHANNELS 3 Zrotation Yrotation Xrotation
								JOINT RightFingerBase
								{
									OFFSET 0 0 0
									CHANNELS 3 Zrotation Yrotation Xrotation
									JOINT RightHandIndex1
									{
										OFFSET -0.78450 -0.00000 0.00000
										CHANNELS 3 Zrotation Yrotation Xrotation
										End Site
										{
											OFFSET -0.63248 -0.00000 0.00000
										}
									}
								}
								JOINT RThumb
								{
									OFFSET 0 0 0
									CHANNELS 3 Zrotation Yrotation Xrotation
									End Site
									{
										OFFSET -0.64214 -0.00000 0.64214
									}
								}
							}
						}
					}
				}
			}
		}
	}
}
MOTION
Frames: 12
Frame Time: .0083333
0.6173 17.765 -0.7812 0 0 0 0 0 0 -21 0 0 0 0 0 0 0 0 0 0 0 0 0 0 21 0 0 0 0 0 0 0 0 0 0 0 0 0 0 0 0 0 0 0 0 0 0 -16 0 0 21 0 0 11 0 0 0 -8 0 0 0 0 0 0 0 0 0 0 0 0 0 0 0 0 0 0 0 0 8 0 0 0 0 0 0 0 0 0 0 0 0 0 0 0 0 0
0.6173 17.7650 -0.7812 0.1088 3.2998 36.1063 0.0000 0.0000 0.0000 -13.2983 -12.4025 -54.5817 2.2142 9.2986 26.7340 0.0114 -3.6415 -3.0422 0.6750 -5.2536 -14.6333 0.0000 0.0000 0.0000 15.2919 7.5599 -55.7431 -1.8815 -8.6148 24.5977 0.0466 -3.9020 -2.2384 -0.6596 5.1942 -14.4634 1.9565 -1.6442 6.4110 3.1597 -1.6798 -7.5330 2.6031 -0.8125 -11.6842 2.0176 -0.4720 -10.0883 -6.4153 -0.7773 -2.0227 -2.4326 -0.5301 1.0649 -0.0000 0.0000 0.0000 -80.4528 -30.2392 54.9850 17.0209 -26.8853 -4.0968 -0.0000 -0.0000 12.7094 0.9999 16.8211 0.2894 -7.1250 0.0000 -0.0000 -24.7795 45.2296 -0.1498 -0.0000 0.0000 0.0000 76.6129 24.3462 42.9017 -18.6077 28.9283 -4.8396 0.0000 0.0000 34.2802 0.0713 7.9560 0.0099 7.1250 -0.0000 -0.0000 19.2998 -22.1237 11.2480
0.6161 17.7653 -0.7811 0.0777 3.3123 36.1455 0.0000 0.0000 0.0000 -13.2332 -12.4140 -54.6212 2.2121 9.2945 26.7211 0.0106 -3.6429 -3.0115 0.6716 -5.2405 -14.5958 0.0000 0.0000 0.0000 15.2945 7.6196 -55.7423 -1.8747 -8.6001 24.5521 0.0485 -3.9742 -2.2408 -0.6417 5.1250 -14.2653 1.9911 -1.6430 6.3951 3.1641 -1.6747 -7.5171 2.5862 -0.8130 -11.6575 2.0013 -0.5073 -9.9586 -6.3999 -0.8386 -2.3338 -2.4215 -0.5539 0.9388 -0.0000 0.0000 0.0000 -80.4830 -30.2702 54.9040 16.9708 -26.8193 -4.0742 -0.0000 -0.0000 12.8869 1.1065 16.8545 0.3209 -7.1250 0.0000 -0.0000 -24.7014 45.2728 -0.1774 -0.0000 0.0000 0.0000 76.6306 24.4262 42.7461 -18.5474 28.8525 -4.8105 0.0000 0.0000 34.3986 0.1620 8.0883 0.0228 7.1250 -0.0000 -0.0000 19.3447 -21.9989 11.3363
0.6159 17.7645 -0.7800 0.0352 3.3333 36.2032 0.0000 0.0000 0.0000 -13.1481 -12.4435 -54.6561 2.2052 9.2810 26.6784 0.0106 -3.5950 -2.9829 0.6632 -5.2084 -14.5038 0.0000 0.0000 0.0000 15.3491 7.6369 -55.7930 -1.8726 -8.5956 24.5382 0.0490 -3.9837 -2.1917 -0.6349 5.0981 -14.1887 2.0768 -1.6512 6.3855 3.1581 -1.6760 -7.5337 2.5323 -0.8212 -11.6737 2.1388 -0.5089 -9.6856 -6.4991 -0.8726 -2.6997 -2.4737 -0.5638 0.7727 -0.0000 0.0000 0.0000 -80.5245 -30.2307 54.7062 16.9068 -26.7347 -4.0453 -0.0000 -0.0000 13.1356 1.0559 16.7250 0.3039 -7.1250 0.0000 -0.0000 -24.6901 45.1491 -0.0969 -0.0000 0.0000 0.0000 76.6816 24.4548 42.6553 -18.4968 28.7886 -4.7861 0.0000 0.0000 34.5035 0.1889 8.0832 0.0266 7.1250 -0.0000 -0.0000 19.3640 -22.0038 11.3467
0.6159 17.7653 -0.7794 0.0935 3.2905 36.2261 0.0000 0.0000 0.0000 -13.2095 -12.4737 -54.6384 2.1994 9.2696 26.6423 0.0116 -3.5436 -2.9956 0.6692 -5.2312 -14.5692 0.0000 0.0000 0.0000 15.2703 7.6347 -55.8140 -1.8710 -8.5920 24.5270 0.0483 -3.9551 -2.1749 -0.6238 5.0543 -14.0636 2.0385 -1.6512 6.4401 3.1155 -1.6825 -7.5444 2.5115 -0.8229 -11.7190 2.2780 -0.5128 -9.4374 -6.6102 -0.9084 -3.0459 -2.5313 -0.5755 0.6174 0.0000 0.0000 0.0000 -80.5833 -30.1980 54.5473 16.8414 -26.6483 -4.0160 -0.0000 -0.0000 13.3717 0.9063 16.5780 0.2586 -7.1250 0.0000 -0.0000 -24.7571 44.9979 0.0014 0.0000 0.0000 0.0000 76.7050 24.4777 42.6102 -18.4634 28.7464 -4.7700 0.0000 0.0000 34.5204 0.1550 7.9841 0.0215 7.1250 -0.0000 -0.0000 19.3539 -22.0972 11.2960
0.6157 17.7666 -0.7791 0.1194 3.2988 36.2567 0.0000 0.0000 0.0000 -13.1941 -12.5352 -54.6340 2.1949 9.2607 26.6143 0.0123 -3.4927 -2.9947 0.6499 -5.1568 -14.3564 0.0000 0.0000 0.0000 15.2540 7.6129 -55.8458 -1.8707 -8.5914 24.5254 0.0471 -3.9153 -2.2012 -0.6086 4.9932 -13.8893 2.0285 -1.6739 6.4634 3.1062 -1.7145 -7.5560 2.5138 -0.8378 -11.7456 2.2636 -0.4969 -9.2946 -6.5774 -0.8977 -3.2925 -2.5134 -0.5637 0.5144 -0.0000 0.0000 0.0000 -80.6131 -30.1458 54.4001 16.7920 -26.5828 -3.9938 -0.0000 -0.0000 13.5260 0.7983 16.5362 0.2272 -7.1250 0.0000 -0.0000 -24.8328 44.9472 0.0346 -0.0000 0.0000 0.0000 76.7509 24.5105 42.5449 -18.4209 28.6928 -4.7496 0.0000 0.0000 34.5657 0.1748 7.9490 0.0242 7.1250 -0.0000 -0.0000 19.3723 -22.1303 11.2924
0.6147 17.7662 -0.7786 0.1453 3.2881 36.3002 0.0000 0.0000 0.0000 -13.2070 -12.5638 -54.6583 2.1910 9.2531 26.5903 0.0124 -3.4713 -2.9866 0.6856 -5.2937 -14.7483 0.0000 0.0000 0.0000 15.2246 7.6202 -55.8999 -1.8715 -8.5931 24.5307 0.0480 -3.9447 -2.1698 -0.6452 5.1386 -14.3044 1.9625 -1.6885 6.4376 3.1241 -1.7422 -7.5378 2.5728 -0.8450 -11.7053 2.1544 -0.4994 -9.2342 -6.4841 -0.9011 -3.5064 -2.4598 -0.5591 0.4354 0.0000 0.0000 0.0000 -80.6322 -30.1528 54.3913 16.7884 -26.5780 -3.9922 -0.0000 -0.0000 13.4886 0.7209 16.7115 0.2073 -7.1250 0.0000 -0.0000 -24.9740 45.0968 -0.0638 0.0000 0.0000 0.0000 76.7392 24.5910 42.5400 -18.3903 28.6540 -4.7349 0.0000 0.0000 34.5563 0.2066 7.8581 0.0282 7.1250 -0.0000 -0.0000 19.4066 -22.2161 11.2742
0.6128 17.7653 -0.7782 0.1364 3.2958 36.3340 0.0000 0.0000 0.0000 -13.1571 -12.5952 -54.6695 2.1887 9.2485 26.5758 0.0133 -3.4415 -3.0080 0.6884 -5.3043 -14.7784 0.0000 0.0000 0.0000 15.2464 7.6322 -55.9339 -1.8707 -8.5915 24.5256 0.0493 -3.9907 -2.1609 -0.6536 5.1714 -14.3980 1.9373 -1.6926 6.4348 3.1319 -1.7511 -7.5119 2.5954 -0.8470 -11.6726 2.1594 -0.5070 -9.1830 -6.4664 -0.9243 -3.7524 -2.4530 -0.5663 0.3471 0.0000 0.0000 0.0000 -80.5887 -30.2089 54.5077 16.8028 -26.5971 -3.9987 -0.0000 -0.0000 13.3026 0.7258 16.8890 0.2109 -7.1250 0.0000 -0.0000 -25.0459 45.2583 -0.1706 0.0000 0.0000 0.0000 76.7185 24.6757 42.5827 -18.3713 28.6299 -4.7258 0.0000 0.0000 34.4065 0.2155 7.7639 0.0291 7.1250 -0.0000 -0.0000 19.4256 -22.3050 11.2444
0.6117 17.7654 -0.7777 0.1573 3.2869 36.3608 0.0000 0.0000 0.0000 -13.1390 -12.6467 -54.6559 2.1865 9.2441 26.5620 0.0150 -3.3823 -3.0490 0.6676 -5.2251 -14.5517 0.0000 0.0000 0.0000 15.1909 7.6595 -55.9433 -1.8714 -8.5928 24.5297 0.0493 -4.0002 -2.2306 -0.5872 4.9065 -13.6421 1.9166 -1.6965 6.4525 3.1072 -1.7610 -7.5040 2.5822 -0.8513 -11.6741 2.1756 -0.5243 -9.0073 -6.4466 -0.9663 -4.1085 -2.4464 -0.5794 0.2018 0.0000 -0.0000 0.0000 -80.5643 -30.2231 54.5469 16.7793 -26.5659 -3.9881 -0.0000 -0.0000 13.2298 0.8569 16.9198 0.2494 -7.1250 0.0000 -0.0000 -24.9456 45.3019 -0.1985 0.0000 -0.0000 0.0000 76.7385 24.7166 42.5350 -18.3598 28.6155 -4.7203 0.0000 0.0000 34.3661 0.2165 7.7606 0.0292 7.1250 -0.0000 -0.0000 19.4268 -22.3082 11.2436
0.6114 17.7651 -0.7770 0.1952 3.2503 36.4103 0.0000 0.0000 0.0000 -13.1695 -12.6798 -54.6822 2.1829 9.2371 26.5398 0.0155 -3.3342 -3.0432 0.6896 -5.3087 -14.7913 0.0000 0.0000 0.0000 15.1326 7.6616 -56.0034 -1.8728 -8.5959 24.5391 0.0478 -3.9492 -2.2450 -0.5249 4.6428 -12.8925 1.8662 -1.7062 6.4508 3.0906 -1.7819 -7.5151 2.5962 -0.8580 -11.6837 2.2231 -0.5210 -8.6969 -6.4816 -0.9888 -4.5693 -2.4619 -0.5799 0.0017 0.0000 -0.0000 0.0000 -80.5735 -30.1689 54.4454 16.7782 -26.5644 -3.9876 -0.0000 -0.0000 13.2510 0.8718 16.8883 0.2533 -7.1250 0.0000 -0.0000 -24.9193 45.2751 -0.1807 0.0000 -0.0000 0.0000 76.7675 24.7630 42.4406 -18.3481 28.6006 -4.7147 0.0000 0.0000 34.3819 0.3361 7.7709 0.0455 7.1250 -0.0000 -0.0000 19.5081 -22.2984 11.3013
0.6097 17.7631 -0.7771 0.2217 3.1954 36.4607 0.0000 0.0000 0.0000 -13.1897 -12.6893 -54.7161 2.1780 9.2273 26.5090 0.0154 -3.2925 -3.0170 0.6910 -5.3143 -14.8071 0.0000 0.0000 0.0000 15.0905 7.6856 -56.0795 -1.8753 -8.6014 24.5561 0.0471 -3.9201 -2.2364 -0.5320 4.6736 -12.9799 1.8232 -1.6872 6.4945 3.0542 -1.7626 -7.5405 2.5808 -0.8463 -11.7395 2.3449 -0.5271 -8.4429 -6.5903 -1.0267 -4.9400 -2.5179 -0.5920 -0.1612 -0.0000 0.0000 0.0000 -80.6153 -30.1048 54.4035 16.7879 -26.5773 -3.9920 -0.0000 -0.0000 13.2829 0.9114 16.8237 0.2638 -7.1250 0.0000 -0.0000 -24.8572 45.2213 -0.1449 -0.0000 0.0000 0.0000 76.7916 24.7729 42.2973 -18.3471 28.5994 -4.7142 0.0000 0.0000 34.3519 0.5036 7.6811 0.0673 7.1250 -0.0000 -0.0000 19.6364 -22.3829 11.3444
0.6074 17.7615 -0.7792 0.2546 3.2077 36.5829 0.0000 0.0000 0.0000 -13.1771 -12.7338 -54.8430 2.1717 9.2150 26.4702 0.0136 -3.3001 -2.9446 0.6666 -5.2214 -14.5410 0.0000 0.0000 0.0000 15.0615 7.6912 -56.2389 -1.8792 -8.6097 24.5818 0.0470 -3.9148 -2.2261 -0.5330 4.6783 -12.9932 1.7967 -1.6902 6.5108 3.0386 -1.7692 -7.6057 2.5837 -0.8473 -11.8234 2.3722 -0.5270 -8.3393 -6.6087 -1.0383 -5.1298 -2.5279 -0.5938 -0.2397 0.0000 -0.0000 0.0000 -80.5777 -30.0089 54.5345 16.8167 -26.6155 -4.0049 -0.0000 -0.0000 13.1845 1.0198 16.7922 0.2947 -7.1250 0.0000 -0.0000 -24.7499 45.2058 -0.1341 0.0000 -0.0000 0.0000 76.7893 24.7596 42.2136 -18.3643 28.6211 -4.7225 0.0000 0.0000 34.2551 0.7090 7.6038 0.0938 7.1250 -0.0000 -0.0000 19.7894 -22.4555 11.4089
